<svg xmlns="http://www.w3.org/2000/svg" xmlns:xlink="http://www.w3.org/1999/xlink" width="551" height="440" version="1.1" style=""><rect id="backgroundrect" width="100%" height="100%" x="0" y="0" fill="none" stroke="none"/>
 <defs>
  <symbol overflow="visible" id="v">
   <path id="svg_1" d="m0.9375,-0.0625c-0.04297,0.03125 -0.08984,0.05469 -0.14062,0.0625c-0.05469,0.00781 -0.10938,0.01562 -0.17188,0.01562c-0.16797,0 -0.30469,-0.04687 -0.40625,-0.14061c-0.10547,-0.09375 -0.15625,-0.22266 -0.15625,-0.39063c0,-0.15625 0.05078,-0.28125 0.15625,-0.375c0.10156,-0.10156 0.23828,-0.15625 0.40625,-0.15625c0.0625,0 0.11719,0.01172 0.17188,0.03125c0.05078,0.01172 0.09766,0.02735 0.14062,0.04688l0,0.21875c-0.04297,-0.03906 -0.08984,-0.06641 -0.14062,-0.07813c-0.05469,-0.01953 -0.10547,-0.03125 -0.15625,-0.03125c-0.09375,0 -0.16797,0.03125 -0.21875,0.09375c-0.05469,0.0625 -0.07812,0.14844 -0.07812,0.25c0,0.10547 0.02343,0.1875 0.07812,0.25c0.05078,0.0625 0.125,0.09375 0.21875,0.09375c0.05078,0 0.10156,-0.0039 0.15625,-0.01562c0.05078,-0.01953 0.09766,-0.04688 0.14062,-0.07813l0,0.20312z"/>
  </symbol>
  <symbol overflow="visible" id="b">
   <path id="svg_2" d="m0.6875,-0.5625c-0.02344,-0.00781 -0.04297,-0.01563 -0.0625,-0.01563c-0.02344,-0.00781 -0.04297,-0.01562 -0.0625,-0.01562c-0.0625,0 -0.11719,0.02344 -0.15625,0.0625c-0.03125,0.04297 -0.04688,0.10156 -0.04688,0.17188l0,0.35938l-0.23438,0l0,-0.76562l0.23438,0l0,0.125c0.03125,-0.05078 0.06641,-0.08594 0.10938,-0.10938c0.03907,-0.01953 0.09375,-0.03125 0.15625,-0.03125l0.01563,0l0.04687,0l0,0.21874z"/>
  </symbol>
  <symbol overflow="visible" id="a">
   <path id="svg_3" d="m0.89062,-0.39062l0,0.07813l-0.57812,0c0,0.05468 0.01563,0.09375 0.04688,0.125c0.03906,0.03125 0.09375,0.04687 0.15625,0.04687c0.05078,0 0.10155,-0.00391 0.15625,-0.01562c0.0625,-0.01954 0.11719,-0.04688 0.17188,-0.07813l0,0.1875c-0.05469,0.02344 -0.10938,0.03906 -0.17188,0.04688c-0.05469,0.00781 -0.10939,0.01562 -0.17189,0.01562c-0.13672,0 -0.24609,-0.03125 -0.32812,-0.09375c-0.07421,-0.07031 -0.10938,-0.17578 -0.10938,-0.3125c0,-0.125 0.03516,-0.21875 0.10938,-0.28125c0.07032,-0.07031 0.17578,-0.10938 0.3125,-0.10938c0.12501,0 0.22266,0.03906 0.29689,0.10938c0.07031,0.07422 0.10938,0.16797 0.10938,0.28125l-0.00002,0zm-0.25,-0.07813c0,-0.03906 -0.01562,-0.07812 -0.04687,-0.10938s-0.07032,-0.04687 -0.10938,-0.04687c-0.05469,0 -0.09375,0.01562 -0.125,0.04687c-0.02344,0.02344 -0.03907,0.0586 -0.04688,0.10938l0.32813,0z"/>
  </symbol>
  <symbol overflow="visible" id="g">
   <path id="svg_4" d="m0.46875,-0.34375c-0.05469,0 -0.09375,0.01172 -0.125,0.03125c-0.02344,0.01172 -0.03125,0.03125 -0.03125,0.0625s0.00781,0.05859 0.03125,0.07813c0.01953,0.02343 0.04688,0.03125 0.07813,0.03125c0.05078,0 0.09375,-0.01563 0.125,-0.04688c0.03125,-0.03906 0.04687,-0.08203 0.04687,-0.125l0,-0.03125l-0.125,0zm0.375,-0.09375l0,0.4375l-0.25,0l0,-0.10938c-0.03125,0.04297 -0.07031,0.07422 -0.10938,0.09375c-0.04297,0.01953 -0.09375,0.03125 -0.15625,0.03125c-0.08594,0 -0.15234,-0.01953 -0.20312,-0.0625c-0.04297,-0.05078 -0.0625,-0.11328 -0.0625,-0.1875c0,-0.08203 0.03125,-0.14453 0.09375,-0.1875c0.0625,-0.05078 0.16016,-0.07812 0.29688,-0.07812l0.14062,0l0,-0.01563c0,-0.03125 -0.01562,-0.05469 -0.04687,-0.07812c-0.03125,-0.01954 -0.07813,-0.03125 -0.14062,-0.03125c-0.05469,0 -0.10547,0.00781 -0.15625,0.01562c-0.04297,0.01172 -0.08594,0.02734 -0.125,0.04688l0,-0.1875c0.05078,-0.00782 0.10156,-0.01563 0.15625,-0.01563c0.05078,-0.00781 0.10938,-0.01562 0.17188,-0.01562c0.13281,0 0.23438,0.02734 0.29688,0.07812c0.0625,0.05469 0.09375,0.14062 0.09375,0.26562l-0.00002,0.00001z"/>
  </symbol>
  <symbol overflow="visible" id="d">
   <path id="svg_5" d="m0.39062,-0.98438l0,0.21875l0.25,0l0,0.17188l-0.25,0l0,0.32812c0,0.03125 0.00391,0.05859 0.01562,0.07813c0.00782,0.01171 0.03907,0.01562 0.09375,0.01562l0.125,0l0,0.17188l-0.21875,0c-0.09375,0 -0.16406,-0.01953 -0.20312,-0.0625c-0.04296,-0.03906 -0.0625,-0.10938 -0.0625,-0.20312l0,-0.32812l-0.125,0l0,-0.17188l0.125,0l0,-0.21875l0.25,-0.00001z"/>
  </symbol>
  <symbol overflow="visible" id="l">
   <path id="svg_6" d="m0.64062,-0.65625l0,-0.40625l0.25,0l0,1.0625l-0.25,0l0,-0.10938c-0.03125,0.04297 -0.07031,0.07422 -0.10938,0.09375c-0.04297,0.01953 -0.08984,0.03125 -0.14062,0.03125c-0.09375,0 -0.17188,-0.03516 -0.23438,-0.10938c-0.0625,-0.07031 -0.09375,-0.17188 -0.09375,-0.29688c0,-0.11328 0.03125,-0.20703 0.09375,-0.28125c0.0625,-0.07031 0.14062,-0.10938 0.23438,-0.10938c0.05078,0 0.09766,0.01172 0.14062,0.03125c0.03906,0.02344 0.07813,0.05469 0.10938,0.09375l0,0.00002zm-0.15625,0.5c0.05078,0 0.08594,-0.01953 0.10938,-0.0625c0.03125,-0.03906 0.04688,-0.09766 0.04688,-0.17188c0,-0.07031 -0.01563,-0.125 -0.04688,-0.15625c-0.02344,-0.03906 -0.05859,-0.0625 -0.10938,-0.0625c-0.05469,0 -0.09375,0.02344 -0.125,0.0625c-0.03125,0.03125 -0.04687,0.08594 -0.04687,0.15625c0,0.07422 0.01562,0.13281 0.04687,0.17188c0.03125,0.04297 0.07031,0.0625 0.125,0.0625z"/>
  </symbol>
  <symbol overflow="visible" id="k">
   <path id="svg_7" d="m0.53125,-0.15625c0.05078,0 0.08594,-0.01953 0.10938,-0.0625c0.03125,-0.03906 0.04688,-0.09766 0.04688,-0.17188c0,-0.07031 -0.01563,-0.125 -0.04688,-0.15625c-0.02344,-0.03906 -0.05859,-0.0625 -0.10938,-0.0625c-0.05469,0 -0.09375,0.02344 -0.125,0.0625c-0.03125,0.03125 -0.04687,0.08594 -0.04687,0.15625c0,0.07422 0.01562,0.13281 0.04687,0.17188c0.03125,0.04297 0.07031,0.0625 0.125,0.0625zm-0.17188,-0.5c0.03906,-0.03906 0.07812,-0.07031 0.10938,-0.09375c0.03906,-0.01953 0.09375,-0.03125 0.15625,-0.03125c0.09375,0 0.16406,0.03906 0.21875,0.10938c0.0625,0.07422 0.09375,0.16797 0.09375,0.28125c0,0.125 -0.03125,0.22656 -0.09375,0.29688c-0.05469,0.07422 -0.125,0.10938 -0.21875,0.10938c-0.0625,0 -0.11719,-0.01172 -0.15625,-0.03125c-0.03125,-0.01953 -0.07031,-0.05078 -0.10938,-0.09375l0,0.10938l-0.23438,0l0,-1.0625l0.23438,0l0,0.40623z"/>
  </symbol>
  <symbol overflow="visible" id="j">
   <path id="svg_8" d="m0.01562,-0.76562l0.25001,0l0.20311,0.51562l0.17189,-0.51562l0.25,0l-0.32812,0.84375c-0.03125,0.08203 -0.07032,0.14062 -0.10938,0.17188c-0.04297,0.03125 -0.10156,0.04688 -0.17188,0.04688l-0.14062,0l0,-0.15625l0.07812,0c0.03906,0 0.07031,-0.00782 0.09375,-0.01563c0.01953,-0.01172 0.03516,-0.03906 0.04688,-0.07812l0,-0.01563l-0.34376,-0.79688z"/>
  </symbol>
  <symbol overflow="visible" id="f">
   <path id="svg_9" d="m0.39062,-0.82812l0,0.625l0.09375,0c0.11328,0 0.19531,-0.02344 0.25,-0.07813c0.0625,-0.05078 0.09375,-0.12891 0.09375,-0.23438c0,-0.10156 -0.03125,-0.17969 -0.09375,-0.23438c-0.05469,-0.05078 -0.13672,-0.07812 -0.25,-0.07812l-0.09375,0.00001zm-0.26562,-0.20312l0.28125,0c0.15625,0 0.26953,0.01562 0.34375,0.04687c0.08203,0.02344 0.14844,0.0586 0.20312,0.10938c0.05078,0.04297 0.08594,0.09375 0.10938,0.15625c0.01953,0.0625 0.03125,0.13281 0.03125,0.20312c0,0.08594 -0.01172,0.15625 -0.03125,0.21875c-0.02344,0.05469 -0.05859,0.10547 -0.10938,0.15625c-0.05469,0.05469 -0.12109,0.08985 -0.20312,0.10938c-0.07422,0.02344 -0.1875,0.03125 -0.34375,0.03125l-0.28125,0l0,-1.03125z"/>
  </symbol>
  <symbol overflow="visible" id="i">
   <path id="svg_10" d="m0.89062,-0.46875l0,0.46875l-0.25,0l0,-0.35938l0,-0.125c0,-0.03125 -0.00781,-0.05078 -0.01562,-0.0625c-0.01172,-0.01953 -0.02735,-0.03516 -0.04688,-0.04688c-0.01172,-0.00781 -0.02734,-0.01562 -0.04687,-0.01562c-0.05469,0 -0.09375,0.02344 -0.125,0.0625c-0.03125,0.04297 -0.04688,0.10156 -0.04688,0.17188l0,0.375l-0.23438,0l0,-0.76562l0.23438,0l0,0.10938c0.03906,-0.03906 0.08203,-0.07031 0.125,-0.09375c0.03906,-0.01953 0.08594,-0.03125 0.14062,-0.03125c0.08203,0 0.14453,0.02734 0.1875,0.07812c0.05078,0.05469 0.07813,0.13281 0.07813,0.23438l0,-0.00001z"/>
  </symbol>
  <symbol overflow="visible" id="u">
   <path id="svg_11" d="m0.125,-0.76562l0.23438,0l0,0.76562l-0.23438,0l0,-0.76562zm0,-0.29688l0.23438,0l0,0.1875l-0.23438,0l0,-0.1875z"/>
  </symbol>
  <symbol overflow="visible" id="t">
   <path id="svg_12" d="m0.125,-1.0625l0.23438,0l0,1.0625l-0.23438,0l0,-1.0625z"/>
  </symbol>
  <symbol overflow="visible" id="h">
   <path id="svg_13" d="m0.10938,-0.29688l0,-0.46875l0.25,0l0,0.07812l0,0.15625l0,0.125l0,0.14062c0,0.02344 0.00391,0.03907 0.01562,0.04688c0.00782,0.02344 0.01954,0.03906 0.03125,0.04687l0.0625,0c0.05079,0 0.09376,-0.01562 0.12501,-0.04687c0.03125,-0.03906 0.04687,-0.09766 0.04687,-0.17188l0,-0.375l0.25,0l0,0.76562l-0.25,0l0,-0.10938c-0.04297,0.04297 -0.08594,0.07422 -0.125,0.09375c-0.04297,0.01953 -0.08984,0.03125 -0.14062,0.03125c-0.08594,0 -0.15234,-0.02344 -0.20312,-0.07813c-0.04297,-0.05078 -0.0625,-0.12891 -0.0625,-0.23438l-0.00001,0.00003z"/>
  </symbol>
  <symbol overflow="visible" id="e">
   <path id="svg_14" d="m0.73438,-0.75l0,0.20312c-0.03125,-0.01953 -0.0625,-0.03516 -0.09375,-0.04688c-0.03125,-0.00781 -0.07031,-0.01562 -0.10938,-0.01562c-0.0625,0 -0.11719,0.02344 -0.15625,0.0625c-0.04297,0.04297 -0.0625,0.09375 -0.0625,0.15625c0,0.07422 0.01953,0.13281 0.0625,0.17188c0.03906,0.04297 0.09375,0.0625 0.15625,0.0625c0.03906,0 0.07812,-0.00391 0.10938,-0.01563c0.03906,-0.00781 0.07031,-0.02343 0.09375,-0.04687l0,0.20312c-0.03125,0.01172 -0.07031,0.01562 -0.10938,0.01562c-0.04297,0.00782 -0.08594,0.01563 -0.125,0.01563c-0.13672,0 -0.24609,-0.03125 -0.32812,-0.09375c-0.07422,-0.07031 -0.10938,-0.17578 -0.10938,-0.3125c0,-0.125 0.03516,-0.21875 0.10938,-0.28125c0.08203,-0.07031 0.19141,-0.10938 0.32812,-0.10938c0.03906,0 0.08203,0.00781 0.125,0.01562c0.03906,0 0.07812,0.00782 0.10938,0.01563l0,0.00001z"/>
  </symbol>
  <symbol overflow="visible" id="c">
   <path id="svg_15" d="m0.48438,-0.60938c-0.05469,0 -0.09375,0.02344 -0.125,0.0625c-0.03125,0.03125 -0.04687,0.08594 -0.04687,0.15625c0,0.08594 0.01562,0.14844 0.04687,0.1875c0.03125,0.03125 0.07031,0.04688 0.125,0.04688c0.05078,0 0.09375,-0.01563 0.125,-0.04688c0.03125,-0.03906 0.04688,-0.10156 0.04688,-0.1875c0,-0.07031 -0.01563,-0.125 -0.04688,-0.15625c-0.03125,-0.03906 -0.07422,-0.0625 -0.125,-0.0625zm0,-0.17188c0.13281,0 0.23828,0.03906 0.3125,0.10938c0.07031,0.0625 0.10938,0.15625 0.10938,0.28125c0,0.13672 -0.03906,0.24219 -0.10938,0.3125c-0.07422,0.0625 -0.17969,0.09375 -0.3125,0.09375c-0.13672,0 -0.24219,-0.03125 -0.3125,-0.09375c-0.07422,-0.07031 -0.10938,-0.17578 -0.10938,-0.3125c0,-0.125 0.03516,-0.21875 0.10938,-0.28125c0.07031,-0.07031 0.17578,-0.10938 0.3125,-0.10938z"/>
  </symbol>
  <symbol overflow="visible" id="s">
   <path id="svg_16" d="m0.48438,-0.60938c-0.05469,0 -0.09375,0.02344 -0.125,0.0625c-0.03125,0.03125 -0.04687,0.08594 -0.04687,0.15625c0,0.07422 0.01562,0.13281 0.04687,0.17188c0.03125,0.04297 0.07031,0.0625 0.125,0.0625c0.05078,0 0.08594,-0.01953 0.10938,-0.0625c0.03125,-0.03906 0.04688,-0.09766 0.04688,-0.17188c0,-0.07031 -0.01563,-0.125 -0.04688,-0.15625c-0.02344,-0.03906 -0.05859,-0.0625 -0.10938,-0.0625zm0.15625,0.5c-0.03125,0.04297 -0.07031,0.07422 -0.10938,0.09375c-0.04297,0.01953 -0.08984,0.03125 -0.14062,0.03125c-0.09375,0 -0.17188,-0.03516 -0.23438,-0.10938c-0.0625,-0.07031 -0.09375,-0.17188 -0.09375,-0.29688c0,-0.11328 0.03125,-0.20703 0.09375,-0.28125c0.0625,-0.07031 0.14062,-0.10938 0.23438,-0.10938c0.05078,0 0.09766,0.01172 0.14062,0.03125c0.03906,0.02344 0.07813,0.05469 0.10938,0.09375l0,-0.10938l0.25,0l0,1.0625l-0.25,0l0,-0.40623z"/>
  </symbol>
  <symbol overflow="visible" id="r">
   <path id="svg_17" d="m0.625,-1.0625l0,0.15625l-0.14062,0c-0.03125,0 -0.05859,0.00781 -0.07812,0.01562c-0.01172,0.01172 -0.01563,0.03125 -0.01563,0.0625l0,0.0625l0.21875,0l0,0.17189l-0.21875,0l0,0.59375l-0.23438,0l0,-0.59375l-0.125,0l0,-0.17189l0.125,0l0,-0.0625c0,-0.08203 0.01953,-0.14061 0.0625,-0.17188c0.05078,-0.03906 0.125,-0.0625 0.21875,-0.0625l0.1875,0.00001z"/>
  </symbol>
  <symbol overflow="visible" id="q">
   <path id="svg_18" d="m0.82812,-0.64062c0.03125,-0.05078 0.06641,-0.08594 0.10938,-0.10938c0.03906,-0.01953 0.08594,-0.03125 0.14062,-0.03125c0.09375,0 0.16016,0.02734 0.20312,0.07812c0.05078,0.05469 0.07813,0.13281 0.07813,0.23438l0,0.46875l-0.25,0l0,-0.40625l0,-0.04687c0,-0.05078 -0.01172,-0.08594 -0.03125,-0.10938c-0.01172,-0.03125 -0.03907,-0.04688 -0.07813,-0.04688c-0.04297,0 -0.07812,0.02344 -0.10938,0.0625c-0.02344,0.04297 -0.03125,0.10156 -0.03125,0.17188l0,0.375l-0.25,0l0,-0.40625c0,-0.08203 -0.01172,-0.13281 -0.03125,-0.15625c-0.01172,-0.03125 -0.03125,-0.04687 -0.0625,-0.04687c-0.05469,0 -0.09375,0.02344 -0.125,0.0625c-0.02344,0.04297 -0.03125,0.10156 -0.03125,0.17188l0,0.375l-0.25,0l0,-0.76562l0.25,0l0,0.10938c0.03125,-0.03906 0.06641,-0.07031 0.10938,-0.09375c0.03906,-0.01953 0.08203,-0.03125 0.125,-0.03125c0.05078,0 0.09766,0.01562 0.14062,0.04687c0.03906,0.02344 0.07031,0.05469 0.09375,0.09375l0.00001,-0.00001z"/>
  </symbol>
  <symbol overflow="visible" id="p">
   <path id="svg_19" d="m0.89062,-0.46875l0,0.46875l-0.25,0l0,-0.35938l0,-0.125c0,-0.03125 -0.00781,-0.05078 -0.01562,-0.0625c-0.01172,-0.01953 -0.02735,-0.03516 -0.04688,-0.04688c-0.01172,-0.00781 -0.02734,-0.01562 -0.04687,-0.01562c-0.05469,0 -0.09375,0.02344 -0.125,0.0625c-0.03125,0.04297 -0.04688,0.10156 -0.04688,0.17188l0,0.375l-0.23438,0l0,-1.0625l0.23438,0l0,0.40625c0.03906,-0.03906 0.08203,-0.07031 0.125,-0.09375c0.03906,-0.01953 0.08594,-0.03125 0.14062,-0.03125c0.08203,0 0.14453,0.02734 0.1875,0.07812c0.05078,0.05469 0.07813,0.13281 0.07813,0.23439l0,-0.00001z"/>
  </symbol>
  <symbol overflow="visible" id="o">
   <path id="svg_20" d="m0.125,-1.0312l0.29688,0l0.375,0.70312l0,-0.70312l0.25,0l0,1.0312l-0.29688,0l-0.375,-0.70312l0,0.70312l-0.25,0l0,-1.0312z"/>
  </symbol>
  <symbol overflow="visible" id="n">
   <path id="svg_21" d="m0.125,-1.0312l0.4375,0c0.13281,0 0.23438,0.03125 0.29688,0.09375c0.07031,0.0625 0.10938,0.14844 0.10938,0.25c0,0.10547 -0.03906,0.1875 -0.10938,0.25c-0.0625,0.05469 -0.16406,0.07813 -0.29688,0.07813l-0.17188,0l0,0.35938l-0.26562,0l0,-1.03126zm0.26562,0.20312l0,0.28125l0.15625,0c0.03906,0 0.07813,-0.00781 0.10938,-0.03125c0.03125,-0.03125 0.04688,-0.06641 0.04688,-0.10938c0,-0.05078 -0.01563,-0.08594 -0.04688,-0.10938c-0.03125,-0.01953 -0.07031,-0.03125 -0.10938,-0.03125l-0.15625,0.00001z"/>
  </symbol>
  <symbol overflow="visible" id="m">
   <path id="svg_22" d="m0.125,-0.76562l0.23438,0l0,0.75c0,0.10156 -0.02734,0.17969 -0.07812,0.23438c-0.04297,0.05078 -0.10938,0.07812 -0.20312,0.07812l-0.125,0l0,-0.15625l0.04687,0c0.03906,0 0.07031,-0.01171 0.09375,-0.03125c0.01953,-0.02343 0.03125,-0.0625 0.03125,-0.125l-0.00001,-0.75zm0,-0.29688l0.23438,0l0,0.1875l-0.23438,0l0,-0.1875z"/>
  </symbol>
 </defs>
 <g style="" class="currentLayer">
  <title>Layer 1</title>
  <g id="svg_23" class="">
   <path stroke="#fff" fill="#000" id="svg_24" d="m541.9954169845581,137.54578101928712 c-1.1211,-1.6797000000000002 -4.4805,-4.4805 -6.7188,-5.0391 c-1.6797000000000002,-0.55859 -5.0391,-1.6797000000000002 -6.7188,-2.8008 c-1.1211,-1.1211 -13.441,-6.7188 -15.68,-7.2812 c-2.2383,-0.55859 -1.6797000000000002,-6.1602 -6.1602,-21.281 c-2.8008,-7.8398 -15.121,-15.68 -27.441,-20.16 c-11.762,-4.4805 -14,-3.9219 -19.039,-6.1602 c-6.1602,-2.2383 -21.84,-3.3594 -33.039,0 c-11.762,3.3594 -18.48,10.641 -22.961,14.559 c-4.4805,3.9219 -12.32,17.359 -14,20.719 c-2.2383,3.3594 -3.9219,6.1602 -7.8398,8.3984 c-3.3594,2.2383 -15.121,6.1602 -20.16,8.9609 c-5.0391,2.8008 -18.48,10.078 -23.52,11.199 c-5.0391,1.1211 -47.602,5.6016 -75.602,7.2812 c-27.441,1.6797000000000002 -80.078,8.9609 -84,9.5195 s-16.238,3.9219 -22.961,5.0391 c-6.7188,1.1211 -41.441,-2.2383 -48.16,-2.2383 s-35.281,-2.8008 -47.602,-5.0391 c-11.199,-2.2383 -35.84,-5.6016 -40.879,-3.9219 c-5.0391,1.6797000000000002 -3.3594,7.8398 -1.1211,10.078 c2.2383,2.2383 2.2383,3.3594 18.48,11.762 c4.4805,2.2383 22.961,8.3984 42.559,14 c19.602,5.6016 42.559,7.2812 47.039,8.9609 c4.4805,2.2383 0.55859,6.7188 -2.8008,13.441 c-3.3594,6.7188 -3.5,20.832 -1.5391,28.449 c1.9609,7.6172 5.4609,11.871 7.1406,15.23 c2.2383,3.3594 1.1211,7.8398 0,12.32 c-0.55859,4.4805 -2.2383,21.281 -4.4805,26.879 c-2.2383,5.6016 -6.7188,15.68 -8.3984,20.719 c-1.6797000000000002,5.0391 -1.6797000000000002,33.039 6.1602,45.359 c7.8398,12.32 16.801,18.48 22.961,19.602 c5.6016,1.1211 18.844,3.5859 25.789,2.2969 c6.9453,-1.2891 6.1875,-9.7148 6.2148,-9.9102 c0.72656,0.25391 9.2969,3.0234 9.9688,3.1641 c5.6016,1.1211 18.48,1.6797000000000002 22.398,1.6797000000000002 c3.9219,0 7.2812,-0.55859 11.762,-0.55859 c5.6016,0 5.4336,-3.8359 5.6016,-5.6016 c0.16797000000000004,-1.7344 0,-6.1602 -4.4805,-10.641 c-4.4805,-5.0391 -8.9609,-5.0391 -11.762,-5.0391 c-2.8008,0 -4.4805,-2.8008 -7.8398,-5.0391 c-3.3594,-2.2383 -7.2812,-5.6016 -9.5195,-7.2812 c-2.2383,-1.6797000000000002 -2.2383,-12.32 0,-14 c2.2383,-2.2383 3.9219,-3.3594 5.6016,-4.4805 c1.6797000000000002,-1.1211 4.4805,-3.9219 4.4805,-3.9219 s7.2812,-5.0391 15.121,-11.762 c3.6133,-3.332 9.8281,-10.5 15.652000000000001,-17.387 c1.5391,0.64453 3.0508,1.2305 4.5078,1.707 c6.7188,2.2383 24.078,5.0391 33.602,3.9219 c9.5195,-0.55859 30.238,-3.3594 31.922,-3.3594 c3.9219,0 2.2383,5.0391 2.2383,7.8398 s-2.8008,11.199 -5.0391,16.801 c-2.2383,5.6016 -2.8008,20.16 -2.8008,22.961 s0.16797000000000004,4.5352 -0.027340000000000007,7.5312 c-0.19531000000000004,2.8281 -0.30859000000000003,4.8711 -0.30859000000000003,6.5508 c0,1.6797000000000002 -0.22266000000000002,5.4883 0.33594000000000007,7.168 s1.6797000000000002,5.0391 2.8008,8.9609 c0.55859,2.2383 3.3594,3.9219 5.0391,4.4805 c1.6797000000000002,0.55859 11.199,1.6797000000000002 15.121,1.6797000000000002 c3.9219,0 11.199,-0.55859 17.359,-1.1211 c6.1602,-1.1211 7.8398,-3.3594 6.7188,-7.8398 c-1.1211,-4.4805 -4.4805,-7.8398 -8.3984,-8.9609 c-3.9219,-1.1211 -6.7188,-1.6797000000000002 -7.8398,-5.6016 s1.6797000000000002,-8.3984 3.3594,-11.199 c2.2383,-3.3594 12.879,-17.922 12.879,-17.922 s1.1211,11.762 1.6797000000000002,14 c0.55859,2.2383 0.55859,10.078 0.55859,12.879 s1.6797000000000002,11.762 2.2383,14.559 c0.55859,2.8008 3.9219,11.199 6.1602,14 c2.8008,2.2383 10.641,3.9219 14,4.4805 c2.8008,0.55859 16.238,1.1211 18.48,1.1211 l10.641,0 c2.2383,0 5.6016,-5.6016 5.6016,-6.7188 c0,-1.1211 1.1211,-7.8398 -1.6797000000000002,-10.641 s-7.8398,-3.9219 -10.641,-3.9219 s-6.1602,0.55859 -8.9609,-2.8008 c-2.8008,-3.3594 -2.2383,-10.641 -2.2383,-14 c0,-2.8008 0.55859,-10.078 0.55859,-12.32 c0.55859,-2.2383 2.2383,-19.602 2.8008,-31.359 c0.55859,-10.641 10.078,-24.078 12.32,-26.879 c2.8008,-3.3594 12.32,-10.641 15.68,-13.441 c3.9219,-2.2383 12.879,-13.441 15.121,-20.719 c2.8008,-7.8398 6.1602,-24.078 11.762,-31.922 c5.6016,-8.3984 8.9609,-11.199 11.762,-13.441 c2.8008,-2.2383 7.2812,-5.0391 10.641,-8.9609 c3.3594,-3.9219 12.879,-2.2383 15.68,-1.1211 c2.8008,1.1211 26.879,7.2812 45.922,-3.9219 c6.1602,-3.3594 14.559,-18.48 15.121,-21.281 c1.1211,-2.8008 1.1211,-6.1602 1.1211,-6.1602 s1.6797000000000002,-2.2383 2.2383,-3.3594 c0.55859,-1.6797000000000002 1.1211,-3.9219 1.1211,-6.1602 c0.015620000000000002,-2.2188 -0.5429700000000001,-3.9023 -1.6641000000000001,-5.582 l0.0008100000000000003,-0.0003100000000000001 zm-390.32,206.08 c-2.2383,-1.6797000000000002 -2.2383,-12.32 0,-14 c1.9609,-1.9609 3.5,-3.0508 4.957,-4.0586 c1.2891,9.4375 3.8359,20.047 7.9258,26.461 c0.72656,1.1484 1.457,2.2383 2.2109,3.2773 c-1.6797000000000002,-0.9531200000000001 -3.1914000000000002,-2.8008 -5.5703,-4.3945 c-3.3633,-2.2461 -7.2812,-5.6055 -9.5234,-7.2852 z"/>
   <use stroke="#fff" fill="#000" id="svg_25" xlink:href="#v" y="511.34499740600586" x="-7.3645830154418945"/>
   <use stroke="#fff" fill="#000" id="svg_26" xlink:href="#b" y="511.34499740600586" x="-6.337242960929871"/>
   <use stroke="#fff" fill="#000" id="svg_27" xlink:href="#a" y="511.34499740600586" x="-5.6458330154418945"/>
   <use stroke="#fff" fill="#000" id="svg_28" xlink:href="#g" y="511.34499740600586" x="-4.696613073348999"/>
   <use stroke="#fff" fill="#000" id="svg_29" xlink:href="#d" y="511.34499740600586" x="-3.751303195953369"/>
   <use stroke="#fff" fill="#000" id="svg_30" xlink:href="#a" y="511.34499740600586" x="-3.0833330154418945"/>
   <use stroke="#fff" fill="#000" id="svg_31" xlink:href="#l" y="511.34499740600586" x="-2.13411283493042"/>
   <use stroke="#fff" fill="#000" id="svg_32" xlink:href="#k" y="511.34499740600586" x="-0.6458330154418945"/>
   <use stroke="#fff" fill="#000" id="svg_33" xlink:href="#j" y="511.34499740600586" x="0.3580770492553711"/>
   <use stroke="#fff" fill="#000" id="svg_34" xlink:href="#f" y="511.34499740600586" x="1.7565069198608398"/>
   <use stroke="#fff" fill="#000" id="svg_35" xlink:href="#g" y="511.34499740600586" x="2.920577049255371"/>
   <use stroke="#fff" fill="#000" id="svg_36" xlink:href="#i" y="511.34499740600586" x="3.865886688232422"/>
   <use stroke="#fff" fill="#000" id="svg_37" xlink:href="#u" y="511.34499740600586" x="4.861976623535156"/>
   <use stroke="#fff" fill="#000" id="svg_38" xlink:href="#a" y="511.34499740600586" x="5.342447280883789"/>
   <use stroke="#fff" fill="#000" id="svg_39" xlink:href="#t" y="511.34499740600586" x="6.2916669845581055"/>
   <use stroke="#fff" fill="#000" id="svg_40" xlink:href="#f" y="511.34499740600586" x="7.25650691986084"/>
   <use stroke="#fff" fill="#000" id="svg_41" xlink:href="#h" y="511.34499740600586" x="8.420577049255371"/>
   <use stroke="#fff" fill="#000" id="svg_42" xlink:href="#e" y="511.34499740600586" x="9.416666984558105"/>
   <use stroke="#fff" fill="#000" id="svg_43" xlink:href="#b" y="511.34499740600586" x="10.248696327209473"/>
   <use stroke="#fff" fill="#000" id="svg_44" xlink:href="#c" y="511.34499740600586" x="10.936196327209473"/>
   <use stroke="#fff" fill="#000" id="svg_45" xlink:href="#e" y="511.34499740600586" x="11.897137641906738"/>
   <use stroke="#fff" fill="#000" id="svg_46" xlink:href="#s" y="511.34499740600586" x="12.729166984558105"/>
   <use stroke="#fff" fill="#000" id="svg_47" xlink:href="#r" y="512.7473411560059" x="-7.3645830154418945"/>
   <use stroke="#fff" fill="#000" id="svg_48" xlink:href="#b" y="512.7473411560059" x="-6.755203008651733"/>
   <use stroke="#fff" fill="#000" id="svg_49" xlink:href="#c" y="512.7473411560059" x="-6.06380295753479"/>
   <use stroke="#fff" fill="#000" id="svg_50" xlink:href="#q" y="512.7473411560059" x="-5.102863073348999"/>
   <use stroke="#fff" fill="#000" id="svg_51" xlink:href="#d" y="512.7473411560059" x="-3.157553195953369"/>
   <use stroke="#fff" fill="#000" id="svg_52" xlink:href="#p" y="512.7473411560059" x="-2.4895830154418945"/>
   <use stroke="#fff" fill="#000" id="svg_53" xlink:href="#a" y="512.7473411560059" x="-1.4895830154418945"/>
   <use stroke="#fff" fill="#000" id="svg_54" xlink:href="#o" y="512.7473411560059" x="-0.055993080139160156"/>
   <use stroke="#fff" fill="#000" id="svg_55" xlink:href="#c" y="512.7473411560059" x="1.1158866882324219"/>
   <use stroke="#fff" fill="#000" id="svg_56" xlink:href="#h" y="512.7473411560059" x="2.0807266235351562"/>
   <use stroke="#fff" fill="#000" id="svg_57" xlink:href="#i" y="512.7473411560059" x="3.076827049255371"/>
   <use stroke="#fff" fill="#000" id="svg_58" xlink:href="#n" y="512.7473411560059" x="4.561197280883789"/>
   <use stroke="#fff" fill="#000" id="svg_59" xlink:href="#b" y="512.7473411560059" x="5.584636688232422"/>
   <use stroke="#fff" fill="#000" id="svg_60" xlink:href="#c" y="512.7473411560059" x="6.2760467529296875"/>
   <use stroke="#fff" fill="#000" id="svg_61" xlink:href="#m" y="512.7473411560059" x="7.236976623535156"/>
   <use stroke="#fff" fill="#000" id="svg_62" xlink:href="#a" y="512.7473411560059" x="7.717446327209473"/>
   <use stroke="#fff" fill="#000" id="svg_63" xlink:href="#e" y="512.7473411560059" x="8.666666984558105"/>
   <use stroke="#fff" fill="#000" id="svg_64" xlink:href="#d" y="512.7473411560059" x="9.498696327209473"/>
  </g>
 </g>
</svg>