<svg width="752" height="752" xmlns="http://www.w3.org/2000/svg" version="1.1">
 <g>
  <title>Layer 1</title>
  <g stroke="null" id="svg_1">
   <path stroke="null" d="m457.35318,367.74631c6.86304,0 12.55631,5.50121 12.55631,12.50048c0,6.83559 -5.6934,12.50048 -12.55631,12.50048l-9.87525,0c-7.03283,0 -12.55631,-5.66767 -12.55631,-12.50048c0,-7.00218 5.52374,-12.50048 12.55631,-12.50048l9.87525,0z" id="svg_2"/>
   <path stroke="null" d="m376.16328,368.24997c28.96084,0 52.56411,23.17035 52.56411,52.01077c0,28.84041 -23.60392,51.84159 -52.56411,52.01077c-28.96084,-0.169 -52.7339,-23.17035 -52.7339,-52.01077c0,-28.84041 23.77112,-52.01077 52.7339,-52.01077zm27.45408,52.01077c0,-14.8367 -12.22191,-27.00399 -27.45408,-27.00399c-15.40197,0 -27.62129,12.16794 -27.62129,27.00399c0,14.6701 12.22191,27.00399 27.62129,27.00399c15.23218,0 27.45408,-12.33453 27.45408,-27.00399z" id="svg_3"/>
   <path stroke="null" d="m385.03533,242.05702l33.98531,33.83957c5.02,4.99929 5.02,12.83367 0,17.66882c-4.85545,4.99929 -12.89071,4.99929 -17.74603,0l-12.55631,-12.50048l0,53.67801c0,6.83559 -5.6934,12.50048 -12.55631,12.50048c-7.03283,0 -12.55631,-5.66767 -12.55631,-12.50048l0,-53.67801l-12.72092,12.50048c-4.85545,4.99929 -12.72092,4.99929 -17.74603,0c-4.85545,-4.83534 -4.85545,-12.83367 0,-17.66882l34.15251,-33.83957c1.0025,-0.83492 2.01005,-1.66725 3.015,-2.16923c1.0025,-0.66587 2.17712,-0.99886 3.34921,-1.33431c0.8329,0.00757 1.67078,-0.16143 2.50873,-0.16143s1.67331,0.169 2.51126,0.169c1.17209,0.33295 2.34419,0.66587 3.34921,1.33431c1.0025,0.4969 2.00499,1.3318 3.00995,2.16168l0.00071,-0.00001z" id="svg_4"/>
   <path stroke="null" d="m469.74423,513.60788l-187.32392,0c-24.60907,-0.169 -44.52937,-20.00245 -44.52937,-44.34026l0,-102.68877c0,-24.50441 20.0875,-44.17625 44.52937,-44.17625l35.32227,0c6.86304,0 12.55631,5.50121 12.55631,12.50048c0,6.83559 -5.6934,12.50048 -12.55631,12.50048l-35.32227,0.00252c-10.7132,0 -19.41934,8.66943 -19.41934,19.17012l0,102.69522c0,5.16827 2.17712,10.00349 5.6934,13.50458c3.68336,3.66749 8.36914,5.8342 13.72866,5.8342l187.32392,0c10.546,0 19.25214,-8.83603 19.25214,-19.33607l0.00253,-102.69522c0,-10.66922 -8.53894,-19.17012 -19.25214,-19.17012l-35.49207,0c-6.86304,0 -12.55631,-5.66767 -12.55631,-12.50048c0,-7.00218 5.6934,-12.50048 12.55631,-12.50048l35.49207,0c24.43668,-0.00505 44.35957,19.66926 44.35957,44.17109l0,102.68877c0,24.33781 -19.7531,44.17109 -44.36476,44.34026l-0.00007,-0.00007z" id="svg_5"/>
  </g>
 </g>

</svg>